<?xml version="1.0" encoding="UTF-8"?>
<svg width="120" height="40" viewBox="0 0 120 40" fill="none" xmlns="http://www.w3.org/2000/svg">
  <path d="M10 8C10 5.79086 11.7909 4 14 4H26C28.2091 4 30 5.79086 30 8V32C30 34.2091 28.2091 36 26 36H14C11.7909 36 10 34.2091 10 32V8Z" fill="#0F172A"/>
  <path d="M14 12C14 10.8954 14.8954 10 16 10H24C25.1046 10 26 10.8954 26 12V28C26 29.1046 25.1046 30 24 30H16C14.8954 30 14 29.1046 14 28V12Z" fill="#2563EB"/>
  <path d="M38 10H52C52.5523 10 53 10.4477 53 11V13C53 13.5523 52.5523 14 52 14H42V18H50C50.5523 18 51 18.4477 51 19V21C51 21.5523 50.5523 22 50 22H42V30C42 30.5523 41.5523 31 41 31H39C38.4477 31 38 30.5523 38 30V11C38 10.4477 38.4477 10 38 10Z" fill="#0F172A"/>
  <path d="M55 10H57C57.5523 10 58 10.4477 58 11V23C58 25.7614 60.2386 28 63 28C65.7614 28 68 25.7614 68 23V11C68 10.4477 68.4477 10 69 10H71C71.5523 10 72 10.4477 72 11V23C72 27.9706 67.9706 32 63 32C58.0294 32 54 27.9706 54 23V11C54 10.4477 54.4477 10 55 10Z" fill="#0F172A"/>
  <path d="M75 10H77C77.5523 10 78 10.4477 78 11V30C78 30.5523 77.5523 31 77 31H75C74.4477 31 74 30.5523 74 30V11C74 10.4477 74.4477 10 75 10Z" fill="#0F172A"/>
  <path d="M82 10H84C84.5523 10 85 10.4477 85 11V27H94C94.5523 27 95 27.4477 95 28V30C95 30.5523 94.5523 31 94 31H83C82.4477 31 82 30.5523 82 30V11C82 10.4477 82.4477 10 82 10Z" fill="#0F172A"/>
  <path d="M97 10H99C99.5523 10 100 10.4477 100 11V30C100 30.5523 99.5523 31 99 31H97C96.4477 31 96 30.5523 96 30V11C96 10.4477 96.4477 10 97 10Z" fill="#0F172A"/>
  <path d="M103 10H105C105.552 10 106 10.4477 106 11V27H115C115.552 27 116 27.4477 116 28V30C116 30.5523 115.552 31 115 31H104C103.448 31 103 30.5523 103 30V11C103 10.4477 103.448 10 103 10Z" fill="#0F172A"/>
</svg>
