<svg width="64" height="64" viewBox="0 0 64 64" fill="none" xmlns="http://www.w3.org/2000/svg">
  <!-- Background circle -->
  <circle cx="32" cy="32" r="30" fill="#c8a951" opacity="0.1"/>
  
  <!-- Main AI brain icon with circuit pattern -->
  <g transform="translate(32, 32)">
    <!-- Brain outline -->
    <path d="M -8 -6 Q -12 -8 -14 -4 Q -14 0 -12 4 Q -8 8 -4 8 Q 0 10 4 8 Q 8 8 12 4 Q 14 0 14 -4 Q 12 -8 8 -6" 
          fill="none" stroke="#c8a951" stroke-width="1.5" stroke-linecap="round" stroke-linejoin="round"/>
    
    <!-- Left hemisphere -->
    <circle cx="-6" cy="-2" r="3" fill="none" stroke="#c8a951" stroke-width="1"/>
    <circle cx="-6" cy="4" r="2.5" fill="none" stroke="#c8a951" stroke-width="1"/>
    
    <!-- Right hemisphere -->
    <circle cx="6" cy="-2" r="3" fill="none" stroke="#c8a951" stroke-width="1"/>
    <circle cx="6" cy="4" r="2.5" fill="none" stroke="#c8a951" stroke-width="1"/>
    
    <!-- Center neural connection -->
    <circle cx="0" cy="0" r="2" fill="#c8a951"/>
    
    <!-- Circuit lines connecting -->
    <line x1="-6" y1="-2" x2="0" y2="0" stroke="#c8a951" stroke-width="0.8" opacity="0.6"/>
    <line x1="6" y1="-2" x2="0" y2="0" stroke="#c8a951" stroke-width="0.8" opacity="0.6"/>
    <line x1="-6" y1="4" x2="0" y2="0" stroke="#c8a951" stroke-width="0.8" opacity="0.6"/>
    <line x1="6" y1="4" x2="0" y2="0" stroke="#c8a951" stroke-width="0.8" opacity="0.6"/>
    
    <!-- Data nodes -->
    <circle cx="-10" cy="-4" r="1.2" fill="#c8a951" opacity="0.7"/>
    <circle cx="10" cy="-4" r="1.2" fill="#c8a951" opacity="0.7"/>
    <circle cx="-10" cy="6" r="1.2" fill="#c8a951" opacity="0.7"/>
    <circle cx="10" cy="6" r="1.2" fill="#c8a951" opacity="0.7"/>
  </g>
</svg>

